<?xml version="1.0" standalone="no"?>
<svg xmlns:xlink="http://www.w3.org/1999/xlink" id="wave" style="transform:rotate(180deg); transition: 0.3s" viewBox="0 0 1440 100" version="1.1" xmlns="http://www.w3.org/2000/svg"><defs><linearGradient id="sw-gradient-0" x1="0" x2="0" y1="1" y2="0"><stop stop-color="rgba(114, 137, 218, 1)" offset="0%"/><stop stop-color="rgba(114, 137, 218, 1)" offset="100%"/></linearGradient></defs><path style="transform:translate(0, 0px); opacity:1" fill="url(#sw-gradient-0)" d="M0,30L10,28.3C20,27,40,23,60,33.3C80,43,100,67,120,66.7C140,67,160,43,180,28.3C200,13,220,7,240,5C260,3,280,7,300,20C320,33,340,57,360,68.3C380,80,400,80,420,76.7C440,73,460,67,480,63.3C500,60,520,60,540,56.7C560,53,580,47,600,41.7C620,37,640,33,660,26.7C680,20,700,10,720,11.7C740,13,760,27,780,31.7C800,37,820,33,840,40C860,47,880,63,900,60C920,57,940,33,960,25C980,17,1000,23,1020,30C1040,37,1060,43,1080,46.7C1100,50,1120,50,1140,51.7C1160,53,1180,57,1200,61.7C1220,67,1240,73,1260,75C1280,77,1300,73,1320,61.7C1340,50,1360,30,1380,26.7C1400,23,1420,37,1430,43.3L1440,50L1440,100L1430,100C1420,100,1400,100,1380,100C1360,100,1340,100,1320,100C1300,100,1280,100,1260,100C1240,100,1220,100,1200,100C1180,100,1160,100,1140,100C1120,100,1100,100,1080,100C1060,100,1040,100,1020,100C1000,100,980,100,960,100C940,100,920,100,900,100C880,100,860,100,840,100C820,100,800,100,780,100C760,100,740,100,720,100C700,100,680,100,660,100C640,100,620,100,600,100C580,100,560,100,540,100C520,100,500,100,480,100C460,100,440,100,420,100C400,100,380,100,360,100C340,100,320,100,300,100C280,100,260,100,240,100C220,100,200,100,180,100C160,100,140,100,120,100C100,100,80,100,60,100C40,100,20,100,10,100L0,100Z"/></svg>